<?xml version="1.0" encoding="UTF-8" ?>
<!DOCTYPE svg PUBLIC "-//W3C//DTD SVG 1.1//EN" "http://www.w3.org/Graphics/SVG/1.1/DTD/svg11.dtd">
<svg width="302pt" height="301pt" viewBox="0 0 302 301" version="1.1" xmlns="http://www.w3.org/2000/svg">
<g id="#fefefeff">
</g>
<g id="#434242ff">
<path fill="#434242" opacity="1.00" d=" M 140.03 19.51 C 147.18 18.92 154.46 18.43 161.58 19.58 C 159.54 20.64 157.31 21.20 155.06 21.58 C 155.52 23.03 156.00 24.48 156.51 25.91 C 154.21 28.12 150.89 27.73 147.98 27.98 C 141.73 28.05 135.75 30.07 129.79 31.68 C 126.89 33.48 129.39 37.27 128.58 39.83 C 124.79 43.31 124.11 49.84 128.14 53.45 C 107.34 58.22 88.32 70.21 75.15 87.02 C 68.57 94.97 63.52 104.10 59.59 113.63 C 57.89 109.34 58.46 104.46 56.55 100.20 C 54.44 101.51 52.13 102.44 49.63 102.54 C 48.48 104.78 47.05 106.99 44.45 107.65 C 42.94 105.22 40.56 103.52 37.59 104.27 C 36.93 106.32 36.48 108.51 35.28 110.33 C 34.01 110.71 32.69 110.19 31.41 110.10 C 31.76 109.36 32.11 108.61 32.46 107.87 C 32.08 107.28 31.72 106.69 31.35 106.10 C 30.38 108.54 28.80 110.68 25.84 110.32 C 34.71 82.74 53.22 58.55 76.96 42.06 C 95.53 29.21 117.49 21.24 140.03 19.51 Z" />
</g>
<g id="#363534ff">
<path fill="#363534" opacity="1.00" d=" M 161.58 19.58 C 177.14 20.61 192.62 24.75 206.71 31.49 C 204.98 32.95 203.07 31.81 201.31 31.16 C 199.15 33.46 195.92 35.29 192.69 34.40 C 185.32 32.20 177.68 30.14 169.92 30.59 C 167.27 32.04 164.76 33.83 161.87 34.87 C 161.26 36.59 161.56 38.48 161.27 40.27 C 161.10 42.84 159.37 44.86 158.36 47.12 C 158.57 49.64 161.56 50.31 163.34 51.49 C 151.61 50.15 139.60 50.51 128.14 53.45 C 124.11 49.84 124.79 43.31 128.58 39.83 C 129.39 37.27 126.89 33.48 129.79 31.68 C 135.75 30.07 141.73 28.05 147.98 27.98 C 150.89 27.73 154.21 28.12 156.51 25.91 C 156.00 24.48 155.52 23.03 155.06 21.58 C 157.31 21.20 159.54 20.64 161.58 19.58 Z" />
</g>
<g id="#272626ff">
<path fill="#272626" opacity="1.00" d=" M 161.87 34.87 C 164.76 33.83 167.27 32.04 169.92 30.59 C 177.68 30.14 185.32 32.20 192.69 34.40 C 195.92 35.29 199.15 33.46 201.31 31.16 C 203.07 31.81 204.98 32.95 206.71 31.49 C 225.86 40.42 242.77 54.10 255.60 70.89 C 254.20 71.28 252.78 71.14 251.40 70.77 C 251.13 71.25 250.57 72.19 250.30 72.66 C 239.59 68.45 234.37 56.70 223.86 52.08 C 218.99 52.05 218.17 57.56 215.46 60.45 C 216.38 61.04 217.30 61.62 218.23 62.22 C 216.84 63.72 214.90 64.36 212.98 64.86 C 213.70 66.04 214.42 67.21 215.14 68.39 C 214.94 68.96 214.75 69.53 214.56 70.10 C 214.93 70.77 215.30 71.44 215.68 72.11 C 215.40 72.76 214.85 74.05 214.58 74.70 C 203.33 64.70 189.67 57.35 175.04 53.77 C 171.18 52.82 167.29 51.98 163.34 51.49 C 161.56 50.31 158.57 49.64 158.36 47.12 C 159.37 44.86 161.10 42.84 161.27 40.27 C 161.56 38.48 161.26 36.59 161.87 34.87 Z" />
</g>
<g id="#f4f4f4ff">
<path fill="#f4f4f4" opacity="1.00" d=" M 128.14 53.45 C 139.60 50.51 151.61 50.15 163.34 51.49 C 167.29 51.98 171.18 52.82 175.04 53.77 C 174.81 54.34 174.34 55.48 174.11 56.05 C 175.15 56.45 176.19 56.85 177.23 57.26 C 177.15 57.57 176.97 58.18 176.88 58.49 C 179.89 60.95 182.08 64.26 185.38 66.40 C 184.97 68.67 184.54 70.93 184.12 73.20 C 183.60 73.51 182.56 74.14 182.03 74.45 C 172.06 63.79 156.41 58.29 142.03 61.59 C 125.71 65.01 111.91 78.60 108.91 95.10 C 105.94 109.58 110.22 125.39 120.96 135.72 C 122.01 138.63 123.69 141.45 123.53 144.65 C 123.33 147.10 125.58 149.83 122.93 151.58 C 122.07 151.19 121.21 150.81 120.35 150.43 C 119.51 152.04 118.71 153.66 117.93 155.31 C 116.98 153.18 116.07 151.04 115.22 148.87 C 112.42 141.88 109.29 135.00 106.88 127.86 C 105.47 123.58 104.76 119.12 104.04 114.69 C 100.95 114.75 97.87 114.81 94.78 114.79 C 93.77 117.47 93.44 120.33 92.99 123.14 C 96.29 123.16 99.60 123.15 102.90 123.08 L 102.99 123.63 C 102.93 129.78 102.98 135.94 103.56 142.06 C 104.42 142.15 106.13 142.33 106.99 142.41 C 107.44 144.83 107.74 147.27 107.95 149.71 C 107.24 149.75 105.83 149.83 105.12 149.87 C 103.34 150.33 101.64 151.04 99.97 151.77 L 99.90 150.67 C 96.77 150.75 93.63 150.94 90.52 151.32 C 90.62 153.78 90.75 156.25 90.95 158.70 C 93.36 158.58 95.76 158.46 98.16 158.22 C 95.71 159.84 93.20 161.72 92.04 164.53 C 91.10 165.75 92.39 166.93 92.79 168.07 L 91.86 168.22 C 90.30 168.49 88.73 168.78 87.17 169.08 L 86.99 168.48 C 84.00 168.74 81.04 169.26 78.06 169.64 C 78.21 170.67 78.37 171.70 78.55 172.74 C 77.70 172.22 76.86 171.70 76.02 171.19 C 75.53 171.35 74.56 171.66 74.08 171.82 C 73.98 171.40 73.79 170.55 73.70 170.13 C 69.86 170.90 66.00 171.55 62.17 172.35 C 63.13 175.74 64.26 179.08 65.52 182.37 C 65.65 185.25 63.62 187.42 61.82 189.41 C 61.35 188.33 60.87 187.25 60.43 186.15 C 54.85 171.68 52.45 156.01 53.60 140.54 C 54.30 131.34 56.19 122.23 59.59 113.63 C 63.52 104.10 68.57 94.97 75.15 87.02 C 88.32 70.21 107.34 58.22 128.14 53.45 M 74.21 98.32 C 71.36 102.39 69.29 106.93 67.27 111.45 C 71.43 111.20 75.57 110.65 79.75 110.56 C 80.66 106.40 81.49 102.22 82.89 98.20 C 80.00 98.24 77.10 98.29 74.21 98.32 M 85.59 98.50 C 84.31 101.97 83.89 105.69 83.18 109.31 C 85.72 109.01 88.25 108.73 90.80 108.52 C 91.98 105.20 92.12 101.63 92.74 98.19 C 90.39 98.37 87.81 97.79 85.59 98.50 M 96.53 98.42 C 96.27 101.51 95.84 104.58 95.26 107.62 C 97.81 107.56 100.36 107.43 102.90 107.23 C 102.98 104.28 103.19 101.33 103.59 98.41 C 101.24 98.26 98.88 98.22 96.53 98.42 M 81.67 116.66 C 81.00 118.95 80.85 121.35 80.47 123.70 C 83.21 123.66 85.96 123.56 88.69 123.24 C 89.02 120.70 89.36 118.16 89.72 115.62 C 87.10 116.17 84.09 115.53 81.67 116.66 M 65.05 118.28 C 64.43 120.43 63.84 122.58 63.25 124.74 C 67.36 124.12 71.68 124.65 75.70 123.73 C 76.56 121.65 76.30 119.27 76.76 117.08 C 72.85 117.41 68.92 117.62 65.05 118.28 M 90.77 132.18 C 90.59 135.59 90.60 139.01 90.60 142.42 C 93.49 142.38 96.39 142.26 99.28 142.09 C 99.27 138.70 99.30 135.32 99.38 131.94 C 96.51 132.00 93.64 132.08 90.77 132.18 M 60.30 134.37 C 59.66 137.67 59.76 141.05 59.63 144.40 C 63.92 144.31 68.22 144.17 72.49 143.65 C 72.61 140.32 72.74 136.99 72.87 133.67 C 68.67 133.82 64.50 134.32 60.30 134.37 M 77.66 133.19 C 77.22 136.52 77.20 139.88 77.13 143.24 C 80.09 143.17 83.02 142.88 85.97 142.68 C 86.36 139.35 86.19 135.98 86.32 132.63 C 83.42 132.70 80.53 132.84 77.66 133.19 M 76.25 152.59 C 76.29 154.96 76.40 157.33 76.56 159.70 C 79.64 159.76 82.70 159.30 85.77 159.17 C 85.72 156.71 85.93 154.20 85.34 151.78 C 82.31 152.13 79.28 152.32 76.25 152.59 M 59.78 153.93 C 59.94 156.55 60.24 159.17 60.43 161.79 C 64.24 161.50 68.02 160.91 71.83 160.52 C 71.84 158.05 71.76 155.57 71.67 153.10 C 67.69 153.11 63.74 153.51 59.78 153.93 Z" />
</g>
<g id="#1b1b1bff">
<path fill="#1b1b1b" opacity="1.00" d=" M 215.46 60.45 C 218.17 57.56 218.99 52.05 223.86 52.08 C 234.37 56.70 239.59 68.45 250.30 72.66 C 250.57 72.19 251.13 71.25 251.40 70.77 C 252.78 71.14 254.20 71.28 255.60 70.89 C 260.05 76.60 264.04 82.67 267.50 89.03 C 279.95 112.04 285.25 138.81 282.68 164.83 C 280.14 162.13 281.02 158.28 280.88 154.95 C 281.11 148.43 280.83 141.89 279.66 135.46 C 278.77 135.86 277.88 136.27 276.99 136.68 C 274.60 132.80 274.48 127.71 270.87 124.59 C 268.74 118.00 267.18 111.20 264.35 104.84 C 260.10 103.62 257.64 99.39 253.23 98.51 C 254.13 97.99 255.03 97.46 255.94 96.93 C 253.21 96.73 250.37 96.66 247.88 95.38 C 241.85 92.46 236.20 88.71 229.89 86.39 C 228.35 85.79 226.69 85.85 225.08 85.91 C 221.81 81.97 218.39 78.13 214.58 74.70 C 214.85 74.05 215.40 72.76 215.68 72.11 C 215.30 71.44 214.93 70.77 214.56 70.10 C 214.75 69.53 214.94 68.96 215.14 68.39 C 214.42 67.21 213.70 66.04 212.98 64.86 C 214.90 64.36 216.84 63.72 218.23 62.22 C 217.30 61.62 216.38 61.04 215.46 60.45 Z" />
</g>
<g id="#e7e6e6ff">
<path fill="#e7e6e6" opacity="1.00" d=" M 175.04 53.77 C 189.67 57.35 203.33 64.70 214.58 74.70 C 218.39 78.13 221.81 81.97 225.08 85.91 C 230.08 92.03 234.48 98.65 238.00 105.74 C 241.10 112.13 243.55 118.84 245.22 125.75 C 244.63 127.12 244.04 128.49 243.47 129.86 C 242.93 128.10 242.40 126.27 241.12 124.89 C 238.82 122.89 240.22 118.84 236.89 117.75 L 236.81 117.52 C 238.87 115.04 235.96 112.70 234.69 110.70 C 232.09 106.55 229.71 102.27 227.04 98.17 C 224.99 98.20 222.93 98.23 220.88 98.26 C 222.35 100.38 223.75 102.54 224.99 104.80 C 224.50 105.96 224.04 107.13 223.59 108.31 C 222.09 104.74 220.08 101.41 217.84 98.26 C 214.23 98.25 210.62 98.24 207.01 98.26 C 208.85 101.77 210.21 105.53 212.13 109.00 C 212.49 109.14 213.21 109.40 213.57 109.54 C 214.94 110.78 216.25 112.10 217.57 113.40 C 217.43 113.79 217.16 114.55 217.02 114.94 C 216.26 114.97 214.74 115.04 213.98 115.07 C 214.05 116.37 214.13 117.67 214.22 118.97 C 214.58 118.55 215.31 117.71 215.67 117.29 C 215.83 117.81 216.13 118.87 216.28 119.40 C 214.76 121.62 215.99 124.22 215.63 126.64 C 213.15 127.99 212.52 124.81 212.23 123.06 C 211.57 120.23 210.68 117.45 209.82 114.68 C 206.21 114.50 202.59 114.48 198.98 114.34 L 197.73 114.25 C 197.00 118.87 196.25 123.49 194.97 128.00 C 191.38 141.23 184.42 153.16 179.06 165.70 C 178.58 165.00 178.10 164.31 177.61 163.61 C 176.94 164.02 176.27 164.44 175.61 164.86 C 175.66 163.07 176.25 161.17 175.65 159.44 C 173.18 157.11 169.41 155.40 166.13 157.10 C 162.72 159.28 158.71 161.09 156.76 164.85 C 154.40 167.31 153.61 170.61 152.55 173.74 C 151.77 176.34 148.89 177.11 146.79 178.33 C 146.72 179.08 146.64 179.84 146.57 180.60 C 145.59 180.03 144.61 179.46 143.63 178.90 C 141.82 183.81 137.83 187.12 134.10 190.59 C 133.91 190.17 133.51 189.34 133.31 188.92 C 129.47 180.96 125.80 172.92 122.18 164.85 C 120.77 161.67 119.34 158.49 117.93 155.31 C 118.71 153.66 119.51 152.04 120.35 150.43 C 121.21 150.81 122.07 151.19 122.93 151.58 C 125.58 149.83 123.33 147.10 123.53 144.65 C 123.69 141.45 122.01 138.63 120.96 135.72 C 126.51 140.64 133.05 144.65 140.34 146.33 C 152.76 149.50 166.58 146.60 176.56 138.52 C 187.81 129.85 195.16 115.66 193.59 101.27 C 192.81 91.38 188.77 81.77 182.03 74.45 C 182.56 74.14 183.60 73.51 184.12 73.20 C 184.54 70.93 184.97 68.67 185.38 66.40 C 182.08 64.26 179.89 60.95 176.88 58.49 C 176.97 58.18 177.15 57.57 177.23 57.26 C 176.19 56.85 175.15 56.45 174.11 56.05 C 174.34 55.48 174.81 54.34 175.04 53.77 M 197.60 98.57 C 198.19 101.24 198.44 103.97 198.60 106.70 C 201.63 107.35 204.76 107.19 207.84 107.51 C 206.65 104.37 205.66 101.13 203.89 98.26 C 201.79 98.33 199.70 98.42 197.60 98.57 Z" />
</g>
<g id="#1c1c1dff">
<path fill="#1c1c1d" opacity="1.00" d=" M 142.03 61.59 C 156.41 58.29 172.06 63.79 182.03 74.45 C 188.77 81.77 192.81 91.38 193.59 101.27 C 192.49 99.96 191.39 98.66 190.29 97.36 C 189.63 98.10 188.97 98.84 188.31 99.58 C 188.11 98.49 187.91 97.40 187.71 96.31 C 186.95 96.57 186.19 96.83 185.44 97.09 C 185.88 98.23 186.32 99.36 186.77 100.50 C 185.67 100.49 184.58 100.48 183.49 100.47 C 182.04 103.84 179.09 106.05 176.65 108.63 C 175.63 109.82 174.14 110.37 172.75 110.99 C 172.63 111.84 172.50 112.69 172.38 113.55 C 168.55 112.82 165.67 116.04 164.08 119.12 C 163.36 120.74 164.09 122.49 164.12 124.16 C 163.19 126.06 161.48 127.37 159.91 128.70 C 158.78 127.98 157.64 127.26 156.50 126.56 C 154.46 127.70 152.07 128.40 150.56 130.29 C 148.76 130.06 146.95 129.85 145.14 129.72 C 142.50 133.92 139.81 138.07 136.20 141.53 C 137.89 142.84 139.46 144.33 140.34 146.33 C 133.05 144.65 126.51 140.64 120.96 135.72 C 110.22 125.39 105.94 109.58 108.91 95.10 C 112.44 93.72 116.12 92.65 119.41 90.73 C 120.60 91.53 121.79 92.33 122.99 93.14 C 125.05 91.42 126.98 89.54 128.73 87.50 C 128.20 87.24 127.15 86.72 126.62 86.46 C 127.73 84.59 128.40 82.52 128.80 80.40 C 128.99 78.39 131.38 78.66 132.81 78.27 C 132.65 77.26 132.49 76.26 132.33 75.26 C 133.24 75.69 134.14 76.12 135.04 76.55 C 137.00 75.26 137.38 72.98 138.00 70.89 C 139.59 68.60 141.88 66.88 143.74 64.79 C 143.17 63.72 142.60 62.65 142.03 61.59 Z" />
</g>
<g id="#252525ff">
<path fill="#252525" opacity="1.00" d=" M 108.91 95.10 C 111.91 78.60 125.71 65.01 142.03 61.59 C 142.60 62.65 143.17 63.72 143.74 64.79 C 141.88 66.88 139.59 68.60 138.00 70.89 C 137.38 72.98 137.00 75.26 135.04 76.55 C 134.14 76.12 133.24 75.69 132.33 75.26 C 132.49 76.26 132.65 77.26 132.81 78.27 C 131.38 78.66 128.99 78.39 128.80 80.40 C 128.40 82.52 127.73 84.59 126.62 86.46 C 127.15 86.72 128.20 87.24 128.73 87.50 C 126.98 89.54 125.05 91.42 122.99 93.14 C 121.79 92.33 120.60 91.53 119.41 90.73 C 116.12 92.65 112.44 93.72 108.91 95.10 Z" />
<path fill="#252525" opacity="1.00" d=" M 95.91 185.11 C 98.58 184.62 101.27 184.18 103.95 183.75 C 104.72 186.21 105.42 188.70 106.10 191.19 C 106.85 193.82 107.70 196.41 108.48 199.03 C 105.92 199.58 103.37 200.13 100.82 200.71 C 99.45 197.56 98.56 194.24 97.46 190.99 C 96.80 189.07 96.28 187.11 95.91 185.11 Z" />
</g>
<g id="#080808ff">
<path fill="#080808" opacity="1.00" d=" M 225.08 85.91 C 226.69 85.85 228.35 85.79 229.89 86.39 C 236.20 88.71 241.85 92.46 247.88 95.38 C 250.37 96.66 253.21 96.73 255.94 96.93 C 255.03 97.46 254.13 97.99 253.23 98.51 C 257.64 99.39 260.10 103.62 264.35 104.84 C 267.18 111.20 268.74 118.00 270.87 124.59 C 271.68 131.70 272.74 138.78 273.06 145.94 C 274.30 153.27 272.54 160.62 272.62 167.98 C 270.48 184.04 265.57 200.00 256.69 213.68 C 252.36 220.54 247.67 227.21 242.22 233.22 C 235.80 239.81 229.51 246.72 221.69 251.70 C 210.23 260.02 197.01 265.78 183.37 269.46 C 173.10 271.73 162.56 273.70 152.00 272.75 C 148.40 271.54 145.38 268.95 141.64 268.03 C 137.31 267.16 134.17 263.84 131.07 260.94 C 128.11 257.81 124.54 255.36 121.03 252.90 C 119.26 251.86 119.07 249.57 117.85 248.07 C 114.81 244.83 110.95 242.47 107.91 239.25 C 107.86 238.66 107.77 237.49 107.72 236.90 C 112.11 238.96 116.59 240.88 121.23 242.32 C 121.36 243.08 121.61 244.58 121.73 245.33 C 127.10 248.95 131.67 253.72 137.53 256.57 C 141.01 258.42 144.26 260.85 148.20 261.68 C 152.88 262.71 157.55 265.43 162.43 263.91 C 181.96 263.77 200.70 255.65 216.49 244.56 C 221.77 241.93 224.67 236.41 229.89 233.70 C 233.52 228.29 237.51 222.97 242.21 218.38 C 242.00 217.65 241.80 216.93 241.60 216.21 C 242.37 215.80 243.14 215.39 243.92 214.98 C 245.50 212.20 247.78 209.66 247.99 206.32 C 249.31 205.17 250.81 204.08 251.54 202.43 C 254.49 195.20 257.80 188.04 259.29 180.31 C 260.74 173.65 260.63 166.77 260.17 160.01 C 259.88 155.11 260.52 150.11 259.27 145.31 C 257.76 139.51 257.95 132.92 253.91 128.08 C 252.30 126.56 253.63 124.04 252.15 122.46 C 248.08 117.52 245.62 111.43 241.31 106.67 C 240.54 105.53 239.16 105.76 238.00 105.74 C 234.48 98.65 230.08 92.03 225.08 85.91 Z" />
</g>
<g id="#e8e7e7ff">
<path fill="#e8e7e7" opacity="1.00" d=" M 267.50 89.03 C 267.93 89.22 268.79 89.60 269.21 89.79 C 278.29 105.29 283.40 123.06 284.44 140.96 C 285.60 150.58 285.77 160.32 285.25 169.99 C 284.68 190.36 277.54 210.03 267.56 227.62 C 260.65 238.69 252.38 248.92 242.71 257.72 C 225.58 272.49 205.39 284.13 183.27 289.44 C 180.45 290.09 177.61 290.86 174.68 290.61 C 180.04 288.47 185.75 287.36 191.01 284.97 C 197.67 281.93 204.73 279.73 211.01 275.89 C 219.67 270.38 228.46 265.00 236.20 258.21 C 247.17 249.87 255.53 238.69 263.50 227.59 C 266.07 222.65 270.12 218.16 270.65 212.43 C 275.54 201.70 279.51 190.50 281.38 178.83 C 281.56 177.09 281.46 175.35 281.47 173.61 C 281.96 170.69 282.39 167.77 282.68 164.83 C 285.25 138.81 279.95 112.04 267.50 89.03 Z" />
</g>
<g id="#151515ff">
<path fill="#151515" opacity="1.00" d=" M 185.44 97.09 C 186.19 96.83 186.95 96.57 187.71 96.31 C 187.91 97.40 188.11 98.49 188.31 99.58 C 188.97 98.84 189.63 98.10 190.29 97.36 C 191.39 98.66 192.49 99.96 193.59 101.27 C 195.16 115.66 187.81 129.85 176.56 138.52 C 166.58 146.60 152.76 149.50 140.34 146.33 C 139.46 144.33 137.89 142.84 136.20 141.53 C 139.81 138.07 142.50 133.92 145.14 129.72 C 146.95 129.85 148.76 130.06 150.56 130.29 C 152.07 128.40 154.46 127.70 156.50 126.56 C 157.64 127.26 158.78 127.98 159.91 128.70 C 161.48 127.37 163.19 126.06 164.12 124.16 C 164.09 122.49 163.36 120.74 164.08 119.12 C 165.67 116.04 168.55 112.82 172.38 113.55 C 172.50 112.69 172.63 111.84 172.75 110.99 C 174.14 110.37 175.63 109.82 176.65 108.63 C 179.09 106.05 182.04 103.84 183.49 100.47 C 184.58 100.48 185.67 100.49 186.77 100.50 C 186.32 99.36 185.88 98.23 185.44 97.09 Z" />
<path fill="#151515" opacity="1.00" d=" M 270.87 124.59 C 274.48 127.71 274.60 132.80 276.99 136.68 C 277.88 136.27 278.77 135.86 279.66 135.46 C 280.83 141.89 281.11 148.43 280.88 154.95 C 281.02 158.28 280.14 162.13 282.68 164.83 C 282.39 167.77 281.96 170.69 281.47 173.61 C 277.64 193.63 269.79 213.04 257.19 229.17 C 244.89 245.43 229.21 259.23 211.04 268.57 C 189.36 279.50 164.70 284.30 140.50 282.35 C 142.21 281.44 144.04 280.81 145.92 280.38 C 144.86 279.01 143.71 277.64 142.09 276.95 C 136.68 274.37 131.10 272.02 125.21 270.84 C 116.83 268.73 108.61 265.92 100.71 262.42 C 97.31 261.03 94.65 258.43 92.48 255.54 C 94.56 252.89 97.00 250.11 97.20 246.59 C 96.34 242.82 93.41 239.86 92.71 236.03 C 92.67 233.21 89.82 231.92 88.44 229.81 C 87.07 227.93 87.35 225.50 87.26 223.32 L 87.72 223.71 C 93.86 228.85 100.59 233.25 107.72 236.90 C 107.77 237.49 107.86 238.66 107.91 239.25 C 110.95 242.47 114.81 244.83 117.85 248.07 C 119.07 249.57 119.26 251.86 121.03 252.90 C 124.54 255.36 128.11 257.81 131.07 260.94 C 134.17 263.84 137.31 267.16 141.64 268.03 C 145.38 268.95 148.40 271.54 152.00 272.75 C 162.56 273.70 173.10 271.73 183.37 269.46 C 197.01 265.78 210.23 260.02 221.69 251.70 C 229.51 246.72 235.80 239.81 242.22 233.22 C 247.67 227.21 252.36 220.54 256.69 213.68 C 265.57 200.00 270.48 184.04 272.62 167.98 C 272.54 160.62 274.30 153.27 273.06 145.94 C 272.74 138.78 271.68 131.70 270.87 124.59 Z" />
</g>
<g id="#504f4eff">
<path fill="#504f4e" opacity="1.00" d=" M 74.21 98.32 C 77.10 98.29 80.00 98.24 82.89 98.20 C 81.49 102.22 80.66 106.40 79.75 110.56 C 75.57 110.65 71.43 111.20 67.27 111.45 C 69.29 106.93 71.36 102.39 74.21 98.32 Z" />
</g>
<g id="#525050ff">
<path fill="#525050" opacity="1.00" d=" M 85.59 98.50 C 87.81 97.79 90.39 98.37 92.74 98.19 C 92.12 101.63 91.98 105.20 90.80 108.52 C 88.25 108.73 85.72 109.01 83.18 109.31 C 83.89 105.69 84.31 101.97 85.59 98.50 Z" />
</g>
<g id="#4c4b4bff">
<path fill="#4c4b4b" opacity="1.00" d=" M 96.53 98.42 C 98.88 98.22 101.24 98.26 103.59 98.41 C 103.19 101.33 102.98 104.28 102.90 107.23 C 100.36 107.43 97.81 107.56 95.26 107.62 C 95.84 104.58 96.27 101.51 96.53 98.42 Z" />
</g>
<g id="#2a2929ff">
<path fill="#2a2929" opacity="1.00" d=" M 197.60 98.57 C 199.70 98.42 201.79 98.33 203.89 98.26 C 205.66 101.13 206.65 104.37 207.84 107.51 C 204.76 107.19 201.63 107.35 198.60 106.70 C 198.44 103.97 198.19 101.24 197.60 98.57 Z" />
</g>
<g id="#252424ff">
<path fill="#252424" opacity="1.00" d=" M 207.01 98.26 C 210.62 98.24 214.23 98.25 217.84 98.26 C 220.08 101.41 222.09 104.74 223.59 108.31 C 223.70 108.74 223.92 109.60 224.04 110.03 C 220.56 109.71 217.07 109.38 213.57 109.54 C 213.21 109.40 212.49 109.14 212.13 109.00 C 210.21 105.53 208.85 101.77 207.01 98.26 Z" />
</g>
<g id="#1f1f20ff">
<path fill="#1f1f20" opacity="1.00" d=" M 220.88 98.26 C 222.93 98.23 224.99 98.20 227.04 98.17 C 229.71 102.27 232.09 106.55 234.69 110.70 C 232.53 110.71 230.38 110.64 228.22 110.55 C 227.13 108.65 226.05 106.73 224.99 104.80 C 223.75 102.54 222.35 100.38 220.88 98.26 Z" />
</g>
<g id="#3b3a3aff">
<path fill="#3b3a3a" opacity="1.00" d=" M 56.55 100.20 C 58.46 104.46 57.89 109.34 59.59 113.63 C 56.19 122.23 54.30 131.34 53.60 140.54 C 49.50 137.85 52.07 131.64 47.67 128.99 C 45.80 130.53 44.61 132.66 43.35 134.69 C 41.62 133.99 39.81 133.51 37.98 133.19 C 37.60 131.68 36.89 130.30 35.71 129.26 C 35.50 128.47 35.31 127.67 35.12 126.88 C 33.89 126.39 32.65 125.91 31.41 125.43 C 29.05 133.41 28.70 141.80 27.95 150.04 C 27.92 152.44 25.13 152.91 23.47 153.92 C 23.17 157.19 22.31 160.39 20.40 163.11 L 19.95 163.88 C 18.70 145.87 20.16 127.53 25.84 110.32 C 28.80 110.68 30.38 108.54 31.35 106.10 C 31.72 106.69 32.08 107.28 32.46 107.87 C 32.11 108.61 31.76 109.36 31.41 110.10 C 32.69 110.19 34.01 110.71 35.28 110.33 C 36.48 108.51 36.93 106.32 37.59 104.27 C 40.56 103.52 42.94 105.22 44.45 107.65 C 47.05 106.99 48.48 104.78 49.63 102.54 C 52.13 102.44 54.44 101.51 56.55 100.20 Z" />
</g>
<g id="#dbdbdcff">
<path fill="#dbdbdc" opacity="1.00" d=" M 224.99 104.80 C 226.05 106.73 227.13 108.65 228.22 110.55 C 230.38 110.64 232.53 110.71 234.69 110.70 C 235.96 112.70 238.87 115.04 236.81 117.52 C 234.71 117.16 232.59 117.10 230.47 117.15 C 231.34 119.28 231.55 121.81 232.94 123.67 C 234.84 123.85 236.76 123.81 238.67 123.83 C 238.02 121.82 237.41 119.79 236.89 117.75 C 240.22 118.84 238.82 122.89 241.12 124.89 C 242.40 126.27 242.93 128.10 243.47 129.86 C 244.04 128.49 244.63 127.12 245.22 125.75 C 248.06 137.71 248.94 150.17 247.30 162.37 C 245.41 162.51 245.64 164.73 245.10 166.04 C 244.53 169.04 243.06 171.73 241.27 174.17 C 242.19 169.87 243.36 165.61 243.54 161.19 C 244.21 154.76 245.47 147.74 242.76 141.63 C 242.50 139.02 242.21 136.40 241.72 133.81 C 240.05 133.79 238.38 133.77 236.72 133.68 C 235.31 133.48 233.90 133.21 232.49 133.03 C 227.77 132.66 223.04 132.63 218.32 132.36 C 218.55 135.65 218.73 138.94 218.86 142.23 C 220.27 142.32 221.68 142.43 223.10 142.51 C 221.93 142.79 220.76 143.08 219.60 143.40 C 219.43 146.10 217.89 148.55 218.11 151.28 C 215.47 151.21 211.52 150.18 212.47 146.74 C 211.76 146.26 211.04 145.79 210.33 145.32 C 211.79 144.58 213.56 143.92 213.75 142.03 C 213.69 138.67 213.47 135.32 213.19 131.98 C 209.76 131.49 206.29 131.63 202.83 131.51 C 202.68 128.70 202.60 125.88 202.43 123.06 C 205.69 123.07 208.96 123.07 212.23 123.06 C 212.52 124.81 213.15 127.99 215.63 126.64 C 215.99 124.22 214.76 121.62 216.28 119.40 C 216.60 120.52 216.92 121.64 217.23 122.76 C 220.81 123.02 224.40 123.18 228.00 123.27 C 227.16 120.76 226.23 118.28 225.15 115.87 C 222.41 115.67 219.68 115.44 216.96 115.23 C 216.53 115.92 216.10 116.60 215.67 117.29 C 215.31 117.71 214.58 118.55 214.22 118.97 C 214.13 117.67 214.05 116.37 213.98 115.07 C 214.74 115.04 216.26 114.97 217.02 114.94 C 217.16 114.55 217.43 113.79 217.57 113.40 C 216.25 112.10 214.94 110.78 213.57 109.54 C 217.07 109.38 220.56 109.71 224.04 110.03 C 223.92 109.60 223.70 108.74 223.59 108.31 C 224.04 107.13 224.50 105.96 224.99 104.80 Z" />
</g>
<g id="#000000ff">
<path fill="#000000" opacity="1.00" d=" M 238.00 105.74 C 239.16 105.76 240.54 105.53 241.31 106.67 C 245.62 111.43 248.08 117.52 252.15 122.46 C 253.63 124.04 252.30 126.56 253.91 128.08 C 257.95 132.92 257.76 139.51 259.27 145.31 C 260.52 150.11 259.88 155.11 260.17 160.01 C 260.63 166.77 260.74 173.65 259.29 180.31 C 257.80 188.04 254.49 195.20 251.54 202.43 C 250.81 204.08 249.31 205.17 247.99 206.32 C 247.78 209.66 245.50 212.20 243.92 214.98 C 243.14 215.39 242.37 215.80 241.60 216.21 C 241.80 216.93 242.00 217.65 242.21 218.38 C 237.51 222.97 233.52 228.29 229.89 233.70 C 224.67 236.41 221.77 241.93 216.49 244.56 C 200.70 255.65 181.96 263.77 162.43 263.91 C 157.55 265.43 152.88 262.71 148.20 261.68 C 144.26 260.85 141.01 258.42 137.53 256.57 C 131.67 253.72 127.10 248.95 121.73 245.33 C 121.61 244.58 121.36 243.08 121.23 242.32 C 125.42 243.65 129.71 244.63 134.06 245.29 C 149.26 247.11 165.05 247.01 179.79 242.45 C 194.14 237.87 207.43 229.91 218.31 219.50 C 228.72 209.58 236.28 197.08 241.85 183.91 C 244.63 177.02 246.25 169.70 247.30 162.37 C 248.94 150.17 248.06 137.71 245.22 125.75 C 243.55 118.84 241.10 112.13 238.00 105.74 Z" />
<path fill="#000000" opacity="1.00" d=" M 197.73 114.25 L 198.98 114.34 C 200.70 116.98 201.91 119.94 202.43 123.06 C 202.60 125.88 202.68 128.70 202.83 131.51 C 206.29 131.63 209.76 131.49 213.19 131.98 C 209.89 132.35 206.57 132.23 203.26 132.17 C 202.88 134.15 203.07 136.46 201.55 138.02 C 199.07 140.04 199.75 143.92 198.68 146.70 C 198.14 146.68 197.08 146.66 196.55 146.65 C 196.34 147.63 196.14 148.62 195.93 149.60 C 196.44 149.67 197.45 149.79 197.95 149.85 C 197.91 152.70 197.81 155.54 197.61 158.38 C 195.18 158.30 192.75 158.20 190.32 158.08 C 189.20 160.87 188.14 163.68 187.10 166.50 C 189.02 166.70 190.94 166.91 192.86 167.07 C 194.12 167.19 195.39 167.32 196.65 167.45 C 196.27 170.26 195.91 173.07 195.56 175.88 C 191.62 175.77 187.69 175.37 183.77 175.03 C 182.72 177.40 181.71 179.80 180.74 182.21 C 184.88 183.05 189.10 183.47 193.29 184.00 C 192.32 188.85 191.52 193.73 190.49 198.57 C 188.91 198.40 187.33 198.24 185.76 198.07 C 183.58 197.73 181.38 197.57 179.19 197.43 C 179.32 193.13 179.49 188.82 179.27 184.52 C 177.23 188.39 175.36 192.35 173.93 196.48 C 173.35 196.44 172.19 196.36 171.61 196.31 C 171.07 197.87 170.54 199.43 170.03 201.00 C 170.77 201.10 172.24 201.31 172.98 201.41 C 172.52 203.18 172.07 204.94 171.63 206.71 C 170.08 206.59 168.54 206.47 166.99 206.35 C 166.05 208.12 165.15 209.93 164.30 211.75 C 165.92 212.02 167.55 212.29 169.17 212.55 C 167.72 215.57 166.48 218.70 164.84 221.62 C 162.67 221.41 160.51 221.23 158.34 221.12 C 157.52 222.63 156.69 224.13 155.87 225.64 C 154.06 229.00 152.31 232.39 150.25 235.60 C 148.00 231.13 145.82 226.61 143.28 222.29 C 141.03 218.25 138.79 214.19 136.82 210.00 C 136.09 208.48 135.34 206.98 134.57 205.48 C 133.62 205.65 132.67 205.83 131.73 206.00 C 131.15 204.51 130.58 203.02 130.02 201.53 C 130.46 201.26 131.35 200.72 131.80 200.45 C 133.79 201.18 135.78 201.89 137.78 202.60 C 138.02 201.88 138.49 200.45 138.73 199.73 C 142.51 207.05 146.23 214.39 149.98 221.72 C 160.12 203.29 170.10 184.74 179.06 165.70 C 184.42 153.16 191.38 141.23 194.97 128.00 C 196.25 123.49 197.00 118.87 197.73 114.25 Z" />
<path fill="#000000" opacity="1.00" d=" M 218.95 169.74 C 223.38 170.28 227.79 170.88 232.18 171.69 C 231.97 172.54 231.56 174.23 231.35 175.08 C 230.74 177.37 230.13 179.65 229.47 181.92 C 226.01 181.12 222.56 180.31 219.06 179.74 C 218.58 179.61 217.61 179.35 217.13 179.21 C 217.64 176.04 218.34 172.90 218.95 169.74 Z" />
<path fill="#000000" opacity="1.00" d=" M 197.06 194.57 C 198.08 191.53 197.97 187.88 199.65 185.25 C 203.36 185.76 207.04 186.51 210.76 187.00 C 210.65 187.44 210.43 188.32 210.32 188.76 C 209.22 193.25 207.81 197.66 206.40 202.05 C 204.98 205.74 203.40 209.37 201.74 212.95 C 198.53 212.01 195.43 210.74 192.21 209.87 C 193.86 204.78 195.98 199.83 197.06 194.57 Z" />
<path fill="#000000" opacity="1.00" d=" M 215.51 188.12 C 216.12 188.26 217.33 188.55 217.94 188.70 C 222.32 189.90 226.78 190.83 231.05 192.42 C 230.64 194.49 229.61 196.35 228.57 198.16 C 224.44 204.73 219.55 210.82 213.79 216.04 C 213.30 216.45 212.31 217.27 211.82 217.68 C 211.55 217.67 211.02 217.65 210.75 217.64 C 208.86 216.41 206.97 215.20 205.00 214.11 C 206.07 211.95 207.13 209.79 208.19 207.63 C 211.31 201.40 213.48 194.77 215.51 188.12 Z" />
<path fill="#000000" opacity="1.00" d=" M 174.34 212.95 C 177.67 213.58 180.95 214.46 184.29 215.06 C 182.65 217.96 180.85 220.78 179.51 223.84 C 176.07 223.96 172.74 222.97 169.36 222.51 C 170.98 219.30 172.47 216.02 174.34 212.95 Z" />
<path fill="#000000" opacity="1.00" d=" M 188.34 215.97 C 191.18 216.54 193.91 217.49 196.64 218.44 C 194.30 221.16 192.40 224.22 190.14 227.00 L 189.43 227.18 C 187.25 226.62 185.06 226.07 182.86 225.59 C 184.72 222.40 186.59 219.22 188.34 215.97 Z" />
<path fill="#000000" opacity="1.00" d=" M 115.18 234.03 C 122.72 230.25 131.19 228.64 139.56 228.24 C 141.56 232.42 143.69 236.54 145.44 240.83 C 141.51 240.45 137.60 240.03 133.70 239.43 C 127.38 238.20 121.15 236.46 115.18 234.03 Z" />
<path fill="#000000" opacity="1.00" d=" M 161.49 228.09 C 163.61 228.48 165.75 228.69 167.88 228.97 C 172.58 229.58 177.17 230.82 181.73 232.11 C 183.33 232.69 184.90 233.41 186.11 234.66 C 182.92 235.50 179.81 236.56 176.68 237.57 C 169.76 239.51 162.59 240.66 155.40 240.88 C 157.74 236.77 159.38 232.32 161.49 228.09 Z" />
</g>
<g id="#4a4949ff">
<path fill="#4a4949" opacity="1.00" d=" M 92.99 123.14 C 93.44 120.33 93.77 117.47 94.78 114.79 C 97.87 114.81 100.95 114.75 104.04 114.69 C 104.76 119.12 105.47 123.58 106.88 127.86 C 105.99 128.89 105.11 129.91 104.23 130.95 C 103.96 128.49 103.54 126.04 102.99 123.63 L 102.90 123.08 C 99.60 123.15 96.29 123.16 92.99 123.14 Z" />
</g>
<g id="#222121ff">
<path fill="#222121" opacity="1.00" d=" M 198.98 114.34 C 202.59 114.48 206.21 114.50 209.82 114.68 C 210.68 117.45 211.57 120.23 212.23 123.06 C 208.96 123.07 205.69 123.07 202.43 123.06 C 201.91 119.94 200.70 116.98 198.98 114.34 Z" />
</g>
<g id="#4e4d4dff">
<path fill="#4e4d4d" opacity="1.00" d=" M 81.67 116.66 C 84.09 115.53 87.10 116.17 89.72 115.62 C 89.36 118.16 89.02 120.70 88.69 123.24 C 85.96 123.56 83.21 123.66 80.47 123.70 C 80.85 121.35 81.00 118.95 81.67 116.66 Z" />
<path fill="#4e4d4d" opacity="1.00" d=" M 65.05 118.28 C 68.92 117.62 72.85 117.41 76.76 117.08 C 76.30 119.27 76.56 121.65 75.70 123.73 C 71.68 124.65 67.36 124.12 63.25 124.74 C 63.84 122.58 64.43 120.43 65.05 118.28 Z" />
</g>
<g id="#201f20ff">
<path fill="#201f20" opacity="1.00" d=" M 215.67 117.29 C 216.10 116.60 216.53 115.92 216.96 115.23 C 219.68 115.44 222.41 115.67 225.15 115.87 C 226.23 118.28 227.16 120.76 228.00 123.27 C 224.40 123.18 220.81 123.02 217.23 122.76 C 216.92 121.64 216.60 120.52 216.28 119.40 C 216.13 118.87 215.83 117.81 215.67 117.29 Z" />
</g>
<g id="#191819ff">
<path fill="#191819" opacity="1.00" d=" M 230.47 117.15 C 232.59 117.10 234.71 117.16 236.81 117.52 L 236.89 117.75 C 237.41 119.79 238.02 121.82 238.67 123.83 C 236.76 123.81 234.84 123.85 232.94 123.67 C 231.55 121.81 231.34 119.28 230.47 117.15 Z" />
</g>
<g id="#353536ff">
<path fill="#353536" opacity="1.00" d=" M 102.99 123.63 C 103.54 126.04 103.96 128.49 104.23 130.95 C 105.11 129.91 105.99 128.89 106.88 127.86 C 109.29 135.00 112.42 141.88 115.22 148.87 C 114.64 149.37 114.07 149.87 113.50 150.38 C 112.84 149.95 112.19 149.53 111.54 149.10 C 111.72 151.00 111.96 152.91 111.88 154.82 C 110.55 156.38 108.45 157.01 106.66 157.91 C 106.33 157.93 105.68 157.97 105.36 157.99 C 105.24 155.28 105.16 152.58 105.12 149.87 C 105.83 149.83 107.24 149.75 107.95 149.71 C 107.74 147.27 107.44 144.83 106.99 142.41 C 106.13 142.33 104.42 142.15 103.56 142.06 C 102.98 135.94 102.93 129.78 102.99 123.63 Z" />
</g>
<g id="#302f2fff">
<path fill="#302f2f" opacity="1.00" d=" M 27.95 150.04 C 28.70 141.80 29.05 133.41 31.41 125.43 C 32.65 125.91 33.89 126.39 35.12 126.88 C 35.31 127.67 35.50 128.47 35.71 129.26 C 36.89 130.30 37.60 131.68 37.98 133.19 C 39.81 133.51 41.62 133.99 43.35 134.69 C 44.61 132.66 45.80 130.53 47.67 128.99 C 52.07 131.64 49.50 137.85 53.60 140.54 C 52.45 156.01 54.85 171.68 60.43 186.15 C 58.36 185.49 56.87 183.96 55.55 182.32 C 55.19 182.46 54.48 182.74 54.12 182.88 C 53.71 183.72 53.28 184.55 52.86 185.39 C 50.59 184.66 47.82 184.79 46.14 182.85 C 44.89 181.36 42.87 181.35 41.12 181.01 C 40.58 180.23 40.05 179.46 39.51 178.68 C 38.68 178.91 37.85 179.14 37.02 179.37 C 36.49 177.81 35.78 176.33 34.89 174.95 C 33.93 175.80 32.11 176.40 32.30 177.98 C 32.46 182.72 33.67 187.35 34.69 191.96 C 32.36 193.51 29.76 194.57 27.36 196.00 C 24.12 187.35 22.42 178.24 20.87 169.17 C 20.64 167.17 20.00 165.12 20.40 163.11 C 22.31 160.39 23.17 157.19 23.47 153.92 C 25.13 152.91 27.92 152.44 27.95 150.04 Z" />
<path fill="#302f2f" opacity="1.00" d=" M 92.79 168.07 C 95.78 167.57 98.81 167.33 101.83 167.13 C 102.31 169.91 102.76 172.71 103.06 175.52 C 99.89 175.95 96.71 176.36 93.54 176.71 C 92.98 173.88 92.42 171.05 91.86 168.22 L 92.79 168.07 Z" />
</g>
<g id="#454343ff">
<path fill="#454343" opacity="1.00" d=" M 90.77 132.18 C 93.64 132.08 96.51 132.00 99.38 131.94 C 99.30 135.32 99.27 138.70 99.28 142.09 C 96.39 142.26 93.49 142.38 90.60 142.42 C 90.60 139.01 90.59 135.59 90.77 132.18 Z" />
</g>
<g id="#191919ff">
<path fill="#191919" opacity="1.00" d=" M 203.26 132.17 C 206.57 132.23 209.89 132.35 213.19 131.98 C 213.47 135.32 213.69 138.67 213.75 142.03 C 209.86 141.98 205.97 141.92 202.09 141.75 C 201.89 140.51 201.71 139.26 201.55 138.02 C 203.07 136.46 202.88 134.15 203.26 132.17 Z" />
</g>
<g id="#494847ff">
<path fill="#494847" opacity="1.00" d=" M 60.30 134.37 C 64.50 134.32 68.67 133.82 72.87 133.67 C 72.74 136.99 72.61 140.32 72.49 143.65 C 68.22 144.17 63.92 144.31 59.63 144.40 C 59.76 141.05 59.66 137.67 60.30 134.37 Z" />
</g>
<g id="#454444ff">
<path fill="#454444" opacity="1.00" d=" M 77.66 133.19 C 80.53 132.84 83.42 132.70 86.32 132.63 C 86.19 135.98 86.36 139.35 85.97 142.68 C 83.02 142.88 80.09 143.17 77.13 143.24 C 77.20 139.88 77.22 136.52 77.66 133.19 Z" />
</g>
<g id="#141414ff">
<path fill="#141414" opacity="1.00" d=" M 218.32 132.36 C 223.04 132.63 227.77 132.66 232.49 133.03 C 232.92 136.38 233.17 139.76 233.25 143.15 C 229.87 142.86 226.49 142.65 223.10 142.51 C 221.68 142.43 220.27 142.32 218.86 142.23 C 218.73 138.94 218.55 135.65 218.32 132.36 Z" />
<path fill="#141414" opacity="1.00" d=" M 128.74 187.10 C 130.27 187.68 131.79 188.29 133.31 188.92 C 133.51 189.34 133.91 190.17 134.10 190.59 C 135.58 193.67 137.22 196.67 138.73 199.73 C 138.49 200.45 138.02 201.88 137.78 202.60 C 135.78 201.89 133.79 201.18 131.80 200.45 C 130.52 197.45 129.03 194.54 127.49 191.66 C 127.92 190.14 128.33 188.62 128.74 187.10 Z" />
</g>
<g id="#cfcfcfff">
<path fill="#cfcfcf" opacity="1.00" d=" M 232.49 133.03 C 233.90 133.21 235.31 133.48 236.72 133.68 C 236.88 136.88 237.16 140.08 237.36 143.29 C 239.16 143.41 240.96 143.52 242.76 143.62 C 242.76 143.12 242.76 142.13 242.76 141.63 C 245.47 147.74 244.21 154.76 243.54 161.19 C 243.40 158.48 243.12 155.77 242.85 153.07 C 241.05 153.01 239.07 152.37 237.41 153.34 C 236.67 154.34 236.08 155.43 235.47 156.51 C 234.74 155.30 234.01 154.08 233.27 152.88 C 228.61 152.57 223.97 152.00 219.31 151.86 C 219.22 152.55 219.05 153.94 218.97 154.63 C 218.20 157.15 218.56 159.77 218.28 162.34 C 217.39 165.93 215.02 168.86 213.28 172.06 C 213.37 171.26 213.54 169.68 213.63 168.88 C 209.73 168.64 205.85 168.09 201.97 167.67 C 201.49 170.70 201.02 173.72 200.53 176.74 C 200.19 175.98 199.86 175.22 199.53 174.46 C 198.41 175.68 197.28 176.89 196.10 178.06 C 196.16 175.56 197.38 173.36 198.01 171.00 C 197.78 169.62 197.26 168.32 196.81 167.01 C 195.49 167.05 194.18 167.07 192.86 167.07 C 190.94 166.91 189.02 166.70 187.10 166.50 C 188.14 163.68 189.20 160.87 190.32 158.08 C 192.75 158.20 195.18 158.30 197.61 158.38 C 197.81 155.54 197.91 152.70 197.95 149.85 C 197.45 149.79 196.44 149.67 195.93 149.60 C 196.14 148.62 196.34 147.63 196.55 146.65 C 197.08 146.66 198.14 146.68 198.68 146.70 C 199.75 143.92 199.07 140.04 201.55 138.02 C 201.71 139.26 201.89 140.51 202.09 141.75 C 205.97 141.92 209.86 141.98 213.75 142.03 C 213.56 143.92 211.79 144.58 210.33 145.32 C 211.04 145.79 211.76 146.26 212.47 146.74 C 211.52 150.18 215.47 151.21 218.11 151.28 C 217.89 148.55 219.43 146.10 219.60 143.40 C 220.76 143.08 221.93 142.79 223.10 142.51 C 226.49 142.65 229.87 142.86 233.25 143.15 C 233.17 139.76 232.92 136.38 232.49 133.03 M 202.96 158.31 C 206.56 158.70 210.20 158.77 213.80 159.21 C 213.88 156.60 213.91 154.00 213.87 151.39 C 210.48 151.16 207.09 150.99 203.70 150.84 C 203.25 153.30 203.04 155.80 202.96 158.31 Z" />
</g>
<g id="#0c0c0cff">
<path fill="#0c0c0c" opacity="1.00" d=" M 236.72 133.68 C 238.38 133.77 240.05 133.79 241.72 133.81 C 242.21 136.40 242.50 139.02 242.76 141.63 C 242.76 142.13 242.76 143.12 242.76 143.62 C 240.96 143.52 239.16 143.41 237.36 143.29 C 237.16 140.08 236.88 136.88 236.72 133.68 Z" />
</g>
<g id="#2b2a2aff">
<path fill="#2b2a2a" opacity="1.00" d=" M 111.54 149.10 C 112.19 149.53 112.84 149.95 113.50 150.38 C 114.07 149.87 114.64 149.37 115.22 148.87 C 116.07 151.04 116.98 153.18 117.93 155.31 C 119.34 158.49 120.77 161.67 122.18 164.85 C 120.80 164.74 119.43 164.63 118.05 164.51 C 116.71 167.02 118.12 169.60 118.88 172.05 C 117.86 172.86 116.84 173.67 115.82 174.49 C 113.22 174.59 110.63 175.25 108.03 175.01 C 107.29 172.37 107.09 169.62 106.71 166.92 C 109.85 166.58 113.00 166.34 116.16 166.14 C 115.10 163.30 114.02 160.47 112.92 157.66 C 110.83 157.76 108.75 157.82 106.66 157.91 C 108.45 157.01 110.55 156.38 111.88 154.82 C 111.96 152.91 111.72 151.00 111.54 149.10 Z" />
</g>
<g id="#e7e6e7ff">
<path fill="#e7e6e7" opacity="1.00" d=" M 99.97 151.77 C 101.64 151.04 103.34 150.33 105.12 149.87 C 105.16 152.58 105.24 155.28 105.36 157.99 C 105.68 157.97 106.33 157.93 106.66 157.91 C 108.75 157.82 110.83 157.76 112.92 157.66 C 114.02 160.47 115.10 163.30 116.16 166.14 C 113.00 166.34 109.85 166.58 106.71 166.92 C 107.09 169.62 107.29 172.37 108.03 175.01 C 110.63 175.25 113.22 174.59 115.82 174.49 C 117.04 174.43 118.27 174.38 119.50 174.35 C 120.52 176.66 121.52 178.97 122.51 181.29 C 118.29 181.97 114.02 182.37 109.78 182.91 C 110.31 185.66 111.04 188.38 111.80 191.08 C 109.90 191.12 108.00 191.16 106.10 191.19 C 105.42 188.70 104.72 186.21 103.95 183.75 C 101.27 184.18 98.58 184.62 95.91 185.11 C 96.28 187.11 96.80 189.07 97.46 190.99 C 96.17 191.83 94.88 192.67 93.60 193.51 C 92.71 191.04 91.85 188.56 90.98 186.09 C 88.20 186.63 85.44 187.21 82.68 187.83 C 83.50 190.55 84.36 193.26 85.47 195.88 C 84.86 196.24 83.65 196.97 83.04 197.34 C 81.76 194.46 80.63 191.52 79.47 188.60 C 76.17 189.71 72.79 190.58 69.54 191.87 C 74.48 201.42 81.27 209.93 89.22 217.15 C 88.52 219.29 88.07 221.49 87.72 223.71 L 87.26 223.32 C 82.57 219.36 78.16 215.05 74.39 210.19 C 69.31 203.86 65.04 196.87 61.82 189.41 C 63.62 187.42 65.65 185.25 65.52 182.37 C 68.97 181.31 72.49 180.51 75.99 179.62 C 75.32 177.03 74.66 174.43 74.08 171.82 C 74.56 171.66 75.53 171.35 76.02 171.19 C 76.86 171.70 77.70 172.22 78.55 172.74 C 78.96 174.79 79.50 176.81 80.04 178.83 C 82.96 178.23 85.90 177.74 88.85 177.30 C 88.21 174.58 87.76 171.81 87.17 169.08 C 88.73 168.78 90.30 168.49 91.86 168.22 C 92.42 171.05 92.98 173.88 93.54 176.71 C 96.71 176.36 99.89 175.95 103.06 175.52 C 102.76 172.71 102.31 169.91 101.83 167.13 C 98.81 167.33 95.78 167.57 92.79 168.07 C 92.39 166.93 91.10 165.75 92.04 164.53 C 93.20 161.72 95.71 159.84 98.16 158.22 C 98.73 158.14 99.86 158.00 100.43 157.93 C 100.25 155.87 100.08 153.82 99.97 151.77 Z" />
</g>
<g id="#3b3a3bff">
<path fill="#3b3a3b" opacity="1.00" d=" M 90.52 151.32 C 93.63 150.94 96.77 150.75 99.90 150.67 L 99.97 151.77 C 100.08 153.82 100.25 155.87 100.43 157.93 C 99.86 158.00 98.73 158.14 98.16 158.22 C 95.76 158.46 93.36 158.58 90.95 158.70 C 90.75 156.25 90.62 153.78 90.52 151.32 Z" />
</g>
<g id="#0e0e0eff">
<path fill="#0e0e0e" opacity="1.00" d=" M 202.96 158.31 C 203.04 155.80 203.25 153.30 203.70 150.84 C 207.09 150.99 210.48 151.16 213.87 151.39 C 213.91 154.00 213.88 156.60 213.80 159.21 C 210.20 158.77 206.56 158.70 202.96 158.31 Z" />
</g>
<g id="#3c3b3cff">
<path fill="#3c3b3c" opacity="1.00" d=" M 76.25 152.59 C 79.28 152.32 82.31 152.13 85.34 151.78 C 85.93 154.20 85.72 156.71 85.77 159.17 C 82.70 159.30 79.64 159.76 76.56 159.70 C 76.40 157.33 76.29 154.96 76.25 152.59 Z" />
</g>
<g id="#050505ff">
<path fill="#050505" opacity="1.00" d=" M 219.31 151.86 C 223.97 152.00 228.61 152.57 233.27 152.88 C 233.22 155.60 233.11 158.33 232.89 161.04 C 228.20 160.82 223.56 160.13 218.90 159.67 C 218.92 157.99 218.94 156.31 218.97 154.63 C 219.05 153.94 219.22 152.55 219.31 151.86 Z" />
</g>
<g id="#3e3d3dff">
<path fill="#3e3d3d" opacity="1.00" d=" M 59.78 153.93 C 63.74 153.51 67.69 153.11 71.67 153.10 C 71.76 155.57 71.84 158.05 71.83 160.52 C 68.02 160.91 64.24 161.50 60.43 161.79 C 60.24 159.17 59.94 156.55 59.78 153.93 Z" />
</g>
<g id="#bfbebfff">
<path fill="#bfbebf" opacity="1.00" d=" M 233.27 152.88 C 234.01 154.08 234.74 155.30 235.47 156.51 C 236.08 155.43 236.67 154.34 237.41 153.34 C 239.07 152.37 241.05 153.01 242.85 153.07 C 243.12 155.77 243.40 158.48 243.54 161.19 C 243.36 165.61 242.19 169.87 241.27 174.17 C 243.06 171.73 244.53 169.04 245.10 166.04 C 245.64 164.73 245.41 162.51 247.30 162.37 C 246.25 169.70 244.63 177.02 241.85 183.91 C 236.28 197.08 228.72 209.58 218.31 219.50 C 217.11 219.43 215.92 219.38 214.73 219.32 C 214.42 218.22 214.10 217.13 213.79 216.04 C 219.55 210.82 224.44 204.73 228.57 198.16 C 232.23 197.03 233.46 193.12 235.05 190.06 C 236.11 188.06 236.39 185.82 236.45 183.60 C 237.48 180.02 239.05 176.59 239.47 172.86 C 237.76 172.23 236.64 172.60 236.13 173.98 C 235.27 173.42 234.43 172.87 233.58 172.32 C 232.82 173.23 232.08 174.15 231.35 175.08 C 231.56 174.23 231.97 172.54 232.18 171.69 C 227.79 170.88 223.38 170.28 218.95 169.74 C 218.34 172.90 217.64 176.04 217.13 179.21 C 217.61 179.35 218.58 179.61 219.06 179.74 C 218.37 179.86 216.98 180.10 216.29 180.22 C 218.47 182.58 219.35 185.66 217.94 188.70 C 217.33 188.55 216.12 188.26 215.51 188.12 C 213.77 188.25 212.04 188.49 210.32 188.76 C 210.43 188.32 210.65 187.44 210.76 187.00 C 207.04 186.51 203.36 185.76 199.65 185.25 C 197.97 187.88 198.08 191.53 197.06 194.57 C 195.78 195.86 194.61 197.26 193.54 198.74 C 190.92 199.55 188.24 199.09 185.76 198.07 C 187.33 198.24 188.91 198.40 190.49 198.57 C 191.52 193.73 192.32 188.85 193.29 184.00 C 189.10 183.47 184.88 183.05 180.74 182.21 C 181.71 179.80 182.72 177.40 183.77 175.03 C 187.69 175.37 191.62 175.77 195.56 175.88 C 195.91 173.07 196.27 170.26 196.65 167.45 C 195.39 167.32 194.12 167.19 192.86 167.07 C 194.18 167.07 195.49 167.05 196.81 167.01 C 197.26 168.32 197.78 169.62 198.01 171.00 C 197.38 173.36 196.16 175.56 196.10 178.06 C 197.28 176.89 198.41 175.68 199.53 174.46 C 199.86 175.22 200.19 175.98 200.53 176.74 C 204.39 177.20 208.26 177.64 212.11 178.23 C 212.54 176.18 212.92 174.12 213.28 172.06 C 215.02 168.86 217.39 165.93 218.28 162.34 C 218.56 159.77 218.20 157.15 218.97 154.63 C 218.94 156.31 218.92 157.99 218.90 159.67 C 223.56 160.13 228.20 160.82 232.89 161.04 C 233.11 158.33 233.22 155.60 233.27 152.88 M 237.64 153.89 C 237.41 156.62 237.28 159.37 237.34 162.11 C 238.93 162.17 240.51 162.22 242.10 162.28 C 242.45 159.51 242.63 156.72 242.59 153.93 C 240.94 153.90 239.29 153.89 237.64 153.89 Z" />
</g>
<g id="#0a0a09ff">
<path fill="#0a0a09" opacity="1.00" d=" M 237.64 153.89 C 239.29 153.89 240.94 153.90 242.59 153.93 C 242.63 156.72 242.45 159.51 242.10 162.28 C 240.51 162.22 238.93 162.17 237.34 162.11 C 237.28 159.37 237.41 156.62 237.64 153.89 Z" />
</g>
<g id="#e2e1e1ff">
<path fill="#e2e1e1" opacity="1.00" d=" M 166.13 157.10 C 169.41 155.40 173.18 157.11 175.65 159.44 C 176.25 161.17 175.66 163.07 175.61 164.86 C 176.27 164.44 176.94 164.02 177.61 163.61 C 178.10 164.31 178.58 165.00 179.06 165.70 C 170.10 184.74 160.12 203.29 149.98 221.72 C 146.23 214.39 142.51 207.05 138.73 199.73 C 137.22 196.67 135.58 193.67 134.10 190.59 C 137.83 187.12 141.82 183.81 143.63 178.90 C 144.61 179.46 145.59 180.03 146.57 180.60 C 146.64 179.84 146.72 179.08 146.79 178.33 C 148.89 177.11 151.77 176.34 152.55 173.74 C 153.61 170.61 154.40 167.31 156.76 164.85 C 158.71 161.09 162.72 159.28 166.13 157.10 Z" />
</g>
<g id="#212121ff">
<path fill="#212121" opacity="1.00" d=" M 118.05 164.51 C 119.43 164.63 120.80 164.74 122.18 164.85 C 125.80 172.92 129.47 180.96 133.31 188.92 C 131.79 188.29 130.27 187.68 128.74 187.10 C 128.33 188.62 127.92 190.14 127.49 191.66 C 126.26 189.27 125.06 186.87 123.74 184.54 C 123.49 188.67 124.07 192.77 124.71 196.84 C 121.08 197.19 117.46 197.64 113.83 198.04 C 113.06 195.75 112.41 193.42 111.80 191.08 C 111.04 188.38 110.31 185.66 109.78 182.91 C 114.02 182.37 118.29 181.97 122.51 181.29 C 121.52 178.97 120.52 176.66 119.50 174.35 C 118.27 174.38 117.04 174.43 115.82 174.49 C 116.84 173.67 117.86 172.86 118.88 172.05 C 118.12 169.60 116.71 167.02 118.05 164.51 Z" />
</g>
<g id="#d8d8d8ff">
<path fill="#d8d8d8" opacity="1.00" d=" M 19.07 165.86 C 19.86 166.84 20.60 167.91 20.87 169.17 C 22.42 178.24 24.12 187.35 27.36 196.00 C 28.34 198.56 29.40 201.08 30.44 203.62 C 30.26 205.88 30.71 208.12 31.75 210.14 C 42.16 233.63 60.06 253.47 81.41 267.57 C 90.92 273.71 100.69 279.65 111.36 283.57 C 126.53 289.05 142.88 291.48 158.97 289.81 C 177.41 288.08 194.88 280.91 210.95 272.01 C 219.25 268.00 226.50 262.25 234.01 256.99 C 239.32 252.69 243.86 247.52 248.75 242.75 C 253.85 237.42 257.69 231.06 262.39 225.39 C 265.72 221.44 267.54 216.53 270.65 212.43 C 270.12 218.16 266.07 222.65 263.50 227.59 C 255.53 238.69 247.17 249.87 236.20 258.21 C 228.46 265.00 219.67 270.38 211.01 275.89 C 204.73 279.73 197.67 281.93 191.01 284.97 C 185.75 287.36 180.04 288.47 174.68 290.61 C 163.02 293.16 150.86 293.15 138.98 292.37 C 114.12 290.65 90.26 280.59 70.70 265.33 C 41.24 243.04 21.18 208.01 18.81 170.96 C 18.60 169.26 18.75 167.54 19.07 165.86 Z" />
</g>
<g id="#323131ff">
<path fill="#323131" opacity="1.00" d=" M 78.06 169.64 C 81.04 169.26 84.00 168.74 86.99 168.48 L 87.17 169.08 C 87.76 171.81 88.21 174.58 88.85 177.30 C 85.90 177.74 82.96 178.23 80.04 178.83 C 79.50 176.81 78.96 174.79 78.55 172.74 C 78.37 171.70 78.21 170.67 78.06 169.64 Z" />
</g>
<g id="#020202ff">
<path fill="#020202" opacity="1.00" d=" M 201.97 167.67 C 205.85 168.09 209.73 168.64 213.63 168.88 C 213.54 169.68 213.37 171.26 213.28 172.06 C 212.92 174.12 212.54 176.18 212.11 178.23 C 208.26 177.64 204.39 177.20 200.53 176.74 C 201.02 173.72 201.49 170.70 201.97 167.67 Z" />
</g>
<g id="#323232ff">
<path fill="#323232" opacity="1.00" d=" M 62.17 172.35 C 66.00 171.55 69.86 170.90 73.70 170.13 C 73.79 170.55 73.98 171.40 74.08 171.82 C 74.66 174.43 75.32 177.03 75.99 179.62 C 72.49 180.51 68.97 181.31 65.52 182.37 C 64.26 179.08 63.13 175.74 62.17 172.35 Z" />
</g>
<g id="#b2b2b3ff">
<path fill="#b2b2b3" opacity="1.00" d=" M 233.58 172.32 C 234.43 172.87 235.27 173.42 236.13 173.98 C 235.19 177.04 234.30 180.12 233.56 183.24 C 234.52 183.36 235.48 183.48 236.45 183.60 C 236.39 185.82 236.11 188.06 235.05 190.06 C 233.46 193.12 232.23 197.03 228.57 198.16 C 229.61 196.35 230.64 194.49 231.05 192.42 C 226.78 190.83 222.32 189.90 217.94 188.70 C 219.35 185.66 218.47 182.58 216.29 180.22 C 216.98 180.10 218.37 179.86 219.06 179.74 C 222.56 180.31 226.01 181.12 229.47 181.92 C 230.13 179.65 230.74 177.37 231.35 175.08 C 232.08 174.15 232.82 173.23 233.58 172.32 Z" />
</g>
<g id="#070707ff">
<path fill="#070707" opacity="1.00" d=" M 236.13 173.98 C 236.64 172.60 237.76 172.23 239.47 172.86 C 239.05 176.59 237.48 180.02 236.45 183.60 C 235.48 183.48 234.52 183.36 233.56 183.24 C 234.30 180.12 235.19 177.04 236.13 173.98 Z" />
</g>
<g id="#bfbebeff">
<path fill="#bfbebe" opacity="1.00" d=" M 281.47 173.61 C 281.46 175.35 281.56 177.09 281.38 178.83 C 279.51 190.50 275.54 201.70 270.65 212.43 C 267.54 216.53 265.72 221.44 262.39 225.39 C 257.69 231.06 253.85 237.42 248.75 242.75 C 243.86 247.52 239.32 252.69 234.01 256.99 C 226.50 262.25 219.25 268.00 210.95 272.01 C 194.88 280.91 177.41 288.08 158.97 289.81 C 142.88 291.48 126.53 289.05 111.36 283.57 C 100.69 279.65 90.92 273.71 81.41 267.57 C 60.06 253.47 42.16 233.63 31.75 210.14 C 30.71 208.12 30.26 205.88 30.44 203.62 C 36.19 215.59 43.14 227.03 51.95 237.01 C 60.04 246.35 69.41 254.56 79.70 261.40 C 81.53 264.97 85.30 266.66 88.65 268.46 C 97.71 273.00 106.16 278.94 116.00 281.75 C 124.88 284.07 133.80 286.67 143.04 286.85 C 149.31 288.10 155.60 286.62 161.89 286.40 C 177.28 283.86 192.13 278.70 206.29 272.23 C 208.17 271.44 209.74 270.12 211.04 268.57 C 229.21 259.23 244.89 245.43 257.19 229.17 C 269.79 213.04 277.64 193.63 281.47 173.61 Z" />
</g>
<g id="#242424ff">
<path fill="#242424" opacity="1.00" d=" M 32.30 177.98 C 32.11 176.40 33.93 175.80 34.89 174.95 C 35.78 176.33 36.49 177.81 37.02 179.37 C 37.85 179.14 38.68 178.91 39.51 178.68 C 40.05 179.46 40.58 180.23 41.12 181.01 C 42.87 181.35 44.89 181.36 46.14 182.85 C 47.82 184.79 50.59 184.66 52.86 185.39 C 53.28 184.55 53.71 183.72 54.12 182.88 C 54.48 182.74 55.19 182.46 55.55 182.32 C 56.87 183.96 58.36 185.49 60.43 186.15 C 60.87 187.25 61.35 188.33 61.82 189.41 C 65.04 196.87 69.31 203.86 74.39 210.19 C 70.44 211.43 68.26 215.45 64.23 216.45 C 63.60 215.83 62.97 215.21 62.34 214.60 C 60.49 216.18 58.11 216.34 55.85 216.83 C 53.80 218.10 52.39 220.12 50.91 221.97 C 53.59 225.46 54.50 230.55 59.05 232.22 C 56.93 234.17 54.48 235.66 51.95 237.01 C 43.14 227.03 36.19 215.59 30.44 203.62 C 29.40 201.08 28.34 198.56 27.36 196.00 C 29.76 194.57 32.36 193.51 34.69 191.96 C 33.67 187.35 32.46 182.72 32.30 177.98 Z" />
</g>
<g id="#232323ff">
<path fill="#232323" opacity="1.00" d=" M 82.68 187.83 C 85.44 187.21 88.20 186.63 90.98 186.09 C 91.85 188.56 92.71 191.04 93.60 193.51 C 95.91 199.90 98.94 206.01 102.39 211.87 C 100.09 212.87 97.78 213.86 95.46 214.86 C 91.70 208.77 88.11 202.55 85.47 195.88 C 84.36 193.26 83.50 190.55 82.68 187.83 Z" />
</g>
<g id="#d2d1d2ff">
<path fill="#d2d1d2" opacity="1.00" d=" M 123.74 184.54 C 125.06 186.87 126.26 189.27 127.49 191.66 C 129.03 194.54 130.52 197.45 131.80 200.45 C 131.35 200.72 130.46 201.26 130.02 201.53 C 130.58 203.02 131.15 204.51 131.73 206.00 C 132.67 205.83 133.62 205.65 134.57 205.48 C 135.34 206.98 136.09 208.48 136.82 210.00 C 135.39 210.65 133.96 211.30 132.51 211.90 L 131.21 212.00 C 131.46 212.65 131.96 213.94 132.22 214.59 C 131.59 215.02 130.33 215.89 129.70 216.32 C 129.16 215.04 128.60 213.77 128.05 212.50 C 125.72 212.89 123.39 213.32 121.08 213.78 C 122.19 215.73 123.27 217.69 124.37 219.65 C 123.19 220.21 122.01 220.77 120.83 221.34 C 119.49 219.07 118.06 216.87 116.63 214.66 C 113.64 215.35 110.70 216.24 107.75 217.09 C 108.02 217.51 108.57 218.35 108.85 218.76 C 107.80 219.08 106.76 219.40 105.71 219.72 C 105.09 219.12 104.47 218.53 103.85 217.94 C 101.17 219.14 98.64 220.62 96.17 222.20 C 99.80 225.55 104.06 228.12 108.51 230.23 C 110.75 231.47 112.87 232.91 115.18 234.03 C 121.15 236.46 127.38 238.20 133.70 239.43 C 134.71 240.06 135.71 240.70 136.70 241.36 C 135.83 242.67 134.94 243.98 134.06 245.29 C 129.71 244.63 125.42 243.65 121.23 242.32 C 116.59 240.88 112.11 238.96 107.72 236.90 C 100.59 233.25 93.86 228.85 87.72 223.71 C 88.07 221.49 88.52 219.29 89.22 217.15 C 90.75 217.56 91.92 216.43 93.16 215.76 C 89.56 209.75 85.76 203.82 83.04 197.34 C 83.65 196.97 84.86 196.24 85.47 195.88 C 88.11 202.55 91.70 208.77 95.46 214.86 C 97.78 213.86 100.09 212.87 102.39 211.87 C 98.94 206.01 95.91 199.90 93.60 193.51 C 94.88 192.67 96.17 191.83 97.46 190.99 C 98.56 194.24 99.45 197.56 100.82 200.71 C 103.37 200.13 105.92 199.58 108.48 199.03 C 107.70 196.41 106.85 193.82 106.10 191.19 C 108.00 191.16 109.90 191.12 111.80 191.08 C 112.41 193.42 113.06 195.75 113.83 198.04 C 117.46 197.64 121.08 197.19 124.71 196.84 C 124.07 192.77 123.49 188.67 123.74 184.54 M 115.23 203.28 C 115.84 204.76 116.45 206.23 117.05 207.71 C 120.40 207.63 123.68 206.87 127.01 206.57 C 126.70 204.85 126.31 203.15 125.84 201.48 C 122.27 201.84 118.72 202.45 115.23 203.28 M 103.50 205.15 C 104.02 206.98 104.74 208.75 105.62 210.45 C 108.09 209.94 110.51 209.25 112.82 208.26 C 112.22 206.52 111.62 204.80 110.98 203.08 C 108.49 203.76 106.00 204.48 103.50 205.15 Z" />
</g>
<g id="#b2b2b2ff">
<path fill="#b2b2b2" opacity="1.00" d=" M 173.93 196.48 C 175.36 192.35 177.23 188.39 179.27 184.52 C 179.49 188.82 179.32 193.13 179.19 197.43 C 181.38 197.57 183.58 197.73 185.76 198.07 C 188.24 199.09 190.92 199.55 193.54 198.74 C 194.61 197.26 195.78 195.86 197.06 194.57 C 195.98 199.83 193.86 204.78 192.21 209.87 C 195.43 210.74 198.53 212.01 201.74 212.95 C 200.18 214.90 198.33 216.60 196.64 218.44 C 193.91 217.49 191.18 216.54 188.34 215.97 C 186.59 219.22 184.72 222.40 182.86 225.59 C 185.06 226.07 187.25 226.62 189.43 227.18 C 188.67 227.38 187.14 227.77 186.38 227.97 C 188.25 229.30 190.29 230.75 192.68 229.85 C 197.75 229.23 201.71 225.55 205.70 222.67 L 205.71 222.13 C 205.66 220.56 205.73 218.99 206.15 217.48 C 207.68 217.53 209.21 217.57 210.75 217.64 C 211.02 217.65 211.55 217.67 211.82 217.68 C 212.31 217.27 213.30 216.45 213.79 216.04 C 214.10 217.13 214.42 218.22 214.73 219.32 C 215.92 219.38 217.11 219.43 218.31 219.50 C 207.43 229.91 194.14 237.87 179.79 242.45 C 178.50 241.00 177.51 239.32 176.68 237.57 C 179.81 236.56 182.92 235.50 186.11 234.66 C 186.21 234.63 186.42 234.56 186.52 234.52 C 186.87 233.04 187.15 231.55 187.42 230.05 C 185.49 230.65 183.59 231.33 181.73 232.11 C 177.17 230.82 172.58 229.58 167.88 228.97 C 168.07 225.91 166.12 223.87 163.50 222.62 C 163.84 222.37 164.50 221.87 164.84 221.62 C 166.48 218.70 167.72 215.57 169.17 212.55 C 167.55 212.29 165.92 212.02 164.30 211.75 C 165.15 209.93 166.05 208.12 166.99 206.35 C 168.54 206.47 170.08 206.59 171.63 206.71 C 172.07 204.94 172.52 203.18 172.98 201.41 C 172.24 201.31 170.77 201.10 170.03 201.00 C 170.54 199.43 171.07 197.87 171.61 196.31 C 172.19 196.36 173.35 196.44 173.93 196.48 M 178.08 202.24 C 177.70 203.81 177.35 205.38 177.01 206.96 C 180.56 207.45 184.12 207.96 187.60 208.81 C 188.30 207.15 188.95 205.43 188.92 203.60 C 185.33 202.96 181.72 202.41 178.08 202.24 M 174.34 212.95 C 172.47 216.02 170.98 219.30 169.36 222.51 C 172.74 222.97 176.07 223.96 179.51 223.84 C 180.85 220.78 182.65 217.96 184.29 215.06 C 180.95 214.46 177.67 213.58 174.34 212.95 Z" />
</g>
<g id="#afafb0ff">
<path fill="#afafb0" opacity="1.00" d=" M 210.32 188.76 C 212.04 188.49 213.77 188.25 215.51 188.12 C 213.48 194.77 211.31 201.40 208.19 207.63 C 207.84 205.70 207.24 203.82 206.40 202.05 C 207.81 197.66 209.22 193.25 210.32 188.76 Z" />
</g>
<g id="#222223ff">
<path fill="#222223" opacity="1.00" d=" M 69.54 191.87 C 72.79 190.58 76.17 189.71 79.47 188.60 C 80.63 191.52 81.76 194.46 83.04 197.34 C 85.76 203.82 89.56 209.75 93.16 215.76 C 91.92 216.43 90.75 217.56 89.22 217.15 C 81.27 209.93 74.48 201.42 69.54 191.87 Z" />
</g>
<g id="#1e1e1eff">
<path fill="#1e1e1e" opacity="1.00" d=" M 115.23 203.28 C 118.72 202.45 122.27 201.84 125.84 201.48 C 126.31 203.15 126.70 204.85 127.01 206.57 C 123.68 206.87 120.40 207.63 117.05 207.71 C 116.45 206.23 115.84 204.76 115.23 203.28 Z" />
</g>
<g id="#010000ff">
<path fill="#010000" opacity="1.00" d=" M 178.08 202.24 C 181.72 202.41 185.33 202.96 188.92 203.60 C 188.95 205.43 188.30 207.15 187.60 208.81 C 184.12 207.96 180.56 207.45 177.01 206.96 C 177.35 205.38 177.70 203.81 178.08 202.24 Z" />
</g>
<g id="#242323ff">
<path fill="#242323" opacity="1.00" d=" M 103.50 205.15 C 106.00 204.48 108.49 203.76 110.98 203.08 C 111.62 204.80 112.22 206.52 112.82 208.26 C 110.51 209.25 108.09 209.94 105.62 210.45 C 104.74 208.75 104.02 206.98 103.50 205.15 Z" />
</g>
<g id="#a7a6a7ff">
<path fill="#a7a6a7" opacity="1.00" d=" M 201.74 212.95 C 203.40 209.37 204.98 205.74 206.40 202.05 C 207.24 203.82 207.84 205.70 208.19 207.63 C 207.13 209.79 206.07 211.95 205.00 214.11 C 206.97 215.20 208.86 216.41 210.75 217.64 C 209.21 217.57 207.68 217.53 206.15 217.48 C 205.73 218.99 205.66 220.56 205.71 222.13 C 204.04 221.11 202.36 220.11 200.69 219.11 C 197.71 222.38 193.70 225.36 192.68 229.85 C 190.29 230.75 188.25 229.30 186.38 227.97 C 187.14 227.77 188.67 227.38 189.43 227.18 L 190.14 227.00 C 192.40 224.22 194.30 221.16 196.64 218.44 C 198.33 216.60 200.18 214.90 201.74 212.95 Z" />
<path fill="#a7a6a7" opacity="1.00" d=" M 158.34 221.12 C 160.51 221.23 162.67 221.41 164.84 221.62 C 164.50 221.87 163.84 222.37 163.50 222.62 C 166.12 223.87 168.07 225.91 167.88 228.97 C 165.75 228.69 163.61 228.48 161.49 228.09 C 159.60 227.32 157.75 226.45 155.87 225.64 C 156.69 224.13 157.52 222.63 158.34 221.12 Z" />
</g>
<g id="#1c1c1cff">
<path fill="#1c1c1c" opacity="1.00" d=" M 74.39 210.19 C 78.16 215.05 82.57 219.36 87.26 223.32 C 87.35 225.50 87.07 227.93 88.44 229.81 C 89.82 231.92 92.67 233.21 92.71 236.03 C 93.41 239.86 96.34 242.82 97.20 246.59 C 97.00 250.11 94.56 252.89 92.48 255.54 C 94.65 258.43 97.31 261.03 100.71 262.42 C 108.61 265.92 116.83 268.73 125.21 270.84 C 131.10 272.02 136.68 274.37 142.09 276.95 C 143.71 277.64 144.86 279.01 145.92 280.38 C 144.04 280.81 142.21 281.44 140.50 282.35 C 118.81 280.85 98.05 272.83 79.70 261.40 C 69.41 254.56 60.04 246.35 51.95 237.01 C 54.48 235.66 56.93 234.17 59.05 232.22 C 54.50 230.55 53.59 225.46 50.91 221.97 C 52.39 220.12 53.80 218.10 55.85 216.83 C 58.11 216.34 60.49 216.18 62.34 214.60 C 62.97 215.21 63.60 215.83 64.23 216.45 C 68.26 215.45 70.44 211.43 74.39 210.19 Z" />
</g>
<g id="#c5c5c5ff">
<path fill="#c5c5c5" opacity="1.00" d=" M 132.51 211.90 C 133.96 211.30 135.39 210.65 136.82 210.00 C 138.79 214.19 141.03 218.25 143.28 222.29 C 142.03 222.72 140.78 223.15 139.54 223.59 C 139.46 225.14 139.41 226.69 139.56 228.24 C 131.19 228.64 122.72 230.25 115.18 234.03 C 112.87 232.91 110.75 231.47 108.51 230.23 C 109.96 229.23 111.38 228.22 112.80 227.19 C 110.48 224.66 108.17 222.11 105.71 219.72 C 106.76 219.40 107.80 219.08 108.85 218.76 C 110.86 221.37 113.05 223.84 114.95 226.53 C 117.51 225.82 120.09 225.14 122.66 224.46 C 122.05 223.41 121.44 222.37 120.83 221.34 C 122.01 220.77 123.19 220.21 124.37 219.65 C 125.11 220.95 125.86 222.24 126.63 223.54 C 128.47 223.23 130.32 222.94 132.17 222.64 C 131.38 220.52 130.58 218.40 129.70 216.32 C 130.33 215.89 131.59 215.02 132.22 214.59 C 133.32 217.25 134.52 219.87 135.56 222.55 C 136.75 222.39 137.95 222.24 139.15 222.08 C 137.74 218.74 136.31 215.40 135.45 211.87 C 134.71 211.88 133.24 211.89 132.51 211.90 Z" />
</g>
<g id="#131313ff">
<path fill="#131313" opacity="1.00" d=" M 131.21 212.00 L 132.51 211.90 C 133.24 211.89 134.71 211.88 135.45 211.87 C 136.31 215.40 137.74 218.74 139.15 222.08 C 137.95 222.24 136.75 222.39 135.56 222.55 C 134.52 219.87 133.32 217.25 132.22 214.59 C 131.96 213.94 131.46 212.65 131.21 212.00 Z" />
</g>
<g id="#101010ff">
<path fill="#101010" opacity="1.00" d=" M 121.08 213.78 C 123.39 213.32 125.72 212.89 128.05 212.50 C 128.60 213.77 129.16 215.04 129.70 216.32 C 130.58 218.40 131.38 220.52 132.17 222.64 C 130.32 222.94 128.47 223.23 126.63 223.54 C 125.86 222.24 125.11 220.95 124.37 219.65 C 123.27 217.69 122.19 215.73 121.08 213.78 Z" />
</g>
<g id="#171616ff">
<path fill="#171616" opacity="1.00" d=" M 107.75 217.09 C 110.70 216.24 113.64 215.35 116.63 214.66 C 118.06 216.87 119.49 219.07 120.83 221.34 C 121.44 222.37 122.05 223.41 122.66 224.46 C 120.09 225.14 117.51 225.82 114.95 226.53 C 113.05 223.84 110.86 221.37 108.85 218.76 C 108.57 218.35 108.02 217.51 107.75 217.09 Z" />
</g>
<g id="#1a1a1bff">
<path fill="#1a1a1b" opacity="1.00" d=" M 96.17 222.20 C 98.64 220.62 101.17 219.14 103.85 217.94 C 104.47 218.53 105.09 219.12 105.71 219.72 C 108.17 222.11 110.48 224.66 112.80 227.19 C 111.38 228.22 109.96 229.23 108.51 230.23 C 104.06 228.12 99.80 225.55 96.17 222.20 Z" />
</g>
<g id="#010100ff">
<path fill="#010100" opacity="1.00" d=" M 192.68 229.85 C 193.70 225.36 197.71 222.38 200.69 219.11 C 202.36 220.11 204.04 221.11 205.71 222.13 L 205.70 222.67 C 201.71 225.55 197.75 229.23 192.68 229.85 Z" />
</g>
<g id="#b3b3b3ff">
<path fill="#b3b3b3" opacity="1.00" d=" M 139.54 223.59 C 140.78 223.15 142.03 222.72 143.28 222.29 C 145.82 226.61 148.00 231.13 150.25 235.60 C 152.31 232.39 154.06 229.00 155.87 225.64 C 157.75 226.45 159.60 227.32 161.49 228.09 C 159.38 232.32 157.74 236.77 155.40 240.88 C 152.18 241.28 148.38 239.18 145.53 241.01 L 145.44 240.83 C 143.69 236.54 141.56 232.42 139.56 228.24 C 139.41 226.69 139.46 225.14 139.54 223.59 Z" />
</g>
<g id="#8d8d8dff">
<path fill="#8d8d8d" opacity="1.00" d=" M 181.73 232.11 C 183.59 231.33 185.49 230.65 187.42 230.05 C 187.15 231.55 186.87 233.04 186.52 234.52 C 186.42 234.56 186.21 234.63 186.11 234.66 C 184.90 233.41 183.33 232.69 181.73 232.11 Z" />
</g>
<g id="#bcbbbcff">
<path fill="#bcbbbc" opacity="1.00" d=" M 155.40 240.88 C 162.59 240.66 169.76 239.51 176.68 237.57 C 177.51 239.32 178.50 241.00 179.79 242.45 C 165.05 247.01 149.26 247.11 134.06 245.29 C 134.94 243.98 135.83 242.67 136.70 241.36 C 135.71 240.70 134.71 240.06 133.70 239.43 C 137.60 240.03 141.51 240.45 145.44 240.83 L 145.53 241.01 C 148.38 239.18 152.18 241.28 155.40 240.88 Z" />
</g>
<g id="#a1a09fff">
<path fill="#a1a09f" opacity="1.00" d=" M 79.70 261.40 C 98.05 272.83 118.81 280.85 140.50 282.35 C 164.70 284.30 189.36 279.50 211.04 268.57 C 209.74 270.12 208.17 271.44 206.29 272.23 C 192.13 278.70 177.28 283.86 161.89 286.40 C 155.60 286.62 149.31 288.10 143.04 286.85 C 133.80 286.67 124.88 284.07 116.00 281.75 C 106.16 278.94 97.71 273.00 88.65 268.46 C 85.30 266.66 81.53 264.97 79.70 261.40 Z" />
</g>
</svg>
