<?xml version="1.0" encoding="UTF-8" ?>
<!DOCTYPE svg PUBLIC "-//W3C//DTD SVG 1.1//EN" "http://www.w3.org/Graphics/SVG/1.1/DTD/svg11.dtd">
<svg width="200pt" height="200pt" viewBox="0 0 200 200" version="1.1" xmlns="http://www.w3.org/2000/svg">
<g id="#000000ff">
<path fill="#FFFFFF" opacity="1.00" d=" M 32.41 36.66 C 39.41 33.56 47.74 40.71 45.77 48.09 C 44.56 55.28 34.77 58.59 29.47 53.56 C 23.76 49.07 25.52 38.97 32.41 36.66 Z" />
<path fill="#FFFFFF" opacity="1.00" d=" M 64.23 42.32 C 65.46 42.06 66.71 41.94 67.98 41.96 C 103.33 42.10 138.69 41.89 174.03 42.06 C 177.21 41.79 179.26 45.88 177.31 48.33 C 176.15 50.13 173.81 49.96 171.95 50.03 C 136.61 49.92 101.27 50.10 65.93 49.94 C 61.63 50.41 60.20 43.72 64.23 42.32 Z" />
<path fill="#FFFFFF" opacity="1.00" d=" M 32.45 72.64 C 39.44 69.60 47.72 76.72 45.78 84.08 C 44.56 91.31 34.72 94.60 29.42 89.52 C 23.75 85.00 25.55 74.92 32.45 72.64 Z" />
<path fill="#FFFFFF" opacity="1.00" d=" M 64.19 78.33 C 65.45 78.06 66.72 77.94 68.01 77.96 C 103.04 78.05 138.08 77.96 173.10 77.98 C 175.51 77.69 178.11 79.32 178.07 81.93 C 178.18 84.61 175.52 86.31 173.06 86.00 C 137.35 85.96 101.62 86.08 65.92 85.94 C 61.64 86.39 60.21 79.77 64.19 78.33 Z" />
<path fill="#FFFFFF" opacity="1.00" d=" M 32.43 108.64 C 39.46 105.57 47.78 112.76 45.76 120.16 C 44.49 127.34 34.70 130.58 29.42 125.53 C 23.75 121.00 25.55 110.94 32.43 108.64 Z" />
<path fill="#FFFFFF" opacity="1.00" d=" M 64.25 114.31 C 65.48 114.06 66.73 113.94 67.99 113.96 C 103.34 114.10 138.71 113.89 174.05 114.06 C 176.91 113.84 179.01 117.24 177.66 119.73 C 176.90 121.57 174.80 122.06 173.00 122.00 C 137.64 122.00 102.27 121.99 66.91 122.01 C 65.38 121.96 63.61 121.86 62.65 120.48 C 60.97 118.54 61.85 115.19 64.25 114.31 Z" />
<path fill="#FFFFFF" opacity="1.00" d=" M 32.42 144.65 C 39.43 141.57 47.75 148.73 45.77 156.12 C 44.53 163.32 34.70 166.60 29.42 161.52 C 23.76 157.00 25.55 146.95 32.42 144.65 Z" />
<path fill="#FFFFFF" opacity="1.00" d=" M 64.17 150.33 C 65.42 150.06 66.68 149.94 67.96 149.96 C 100.66 150.05 133.36 149.96 166.06 149.98 C 169.27 150.06 172.55 149.63 175.71 150.34 C 178.20 151.36 178.86 154.99 176.89 156.82 C 175.65 158.17 173.66 157.91 172.02 158.03 C 137.00 157.96 101.99 158.00 66.97 158.00 C 65.42 157.95 63.58 157.87 62.61 156.43 C 61.01 154.51 61.84 151.25 64.17 150.33 Z" />
</g>
</svg>
