<?xml version="1.0" encoding="UTF-8" ?>
<!DOCTYPE svg PUBLIC "-//W3C//DTD SVG 1.1//EN" "http://www.w3.org/Graphics/SVG/1.1/DTD/svg11.dtd">
<svg width="305pt" height="302pt" viewBox="0 0 305 302" version="1.1" xmlns="http://www.w3.org/2000/svg">
<g id="#fdfdfdff">
<path fill="#fdfdfd" opacity="1.00" d=" M 59.43 144.15 C 67.87 106.53 102.65 76.89 140.90 73.57 C 143.91 73.30 146.95 73.31 149.94 72.89 C 151.31 72.88 152.67 72.89 154.04 72.90 C 166.65 73.50 179.26 75.88 190.78 81.23 C 212.29 90.96 230.16 108.84 239.10 130.78 C 247.22 150.88 247.49 174.69 237.04 194.00 C 235.30 197.69 229.82 199.24 226.89 196.08 C 224.45 193.86 225.31 190.22 226.52 187.59 C 233.34 172.67 233.19 155.18 228.25 139.73 C 221.67 121.00 207.57 104.96 189.68 96.28 C 172.65 88.21 153.02 85.26 134.50 89.23 C 116.33 92.48 99.41 102.44 87.90 116.89 C 75.13 132.28 68.61 153.16 72.09 173.02 C 72.51 179.23 74.95 185.00 76.75 190.88 C 78.02 195.71 71.94 199.33 67.86 197.24 C 65.60 195.72 64.37 193.16 63.29 190.74 C 57.45 176.06 55.65 159.58 59.43 144.15 Z" />
<path fill="#fdfdfd" opacity="1.00" d=" M 146.71 104.00 C 161.46 103.15 176.68 107.54 188.50 116.49 C 207.05 130.24 216.52 155.88 209.57 178.17 C 207.87 183.44 205.98 189.01 202.09 193.10 C 198.86 196.40 192.87 194.41 191.83 190.04 C 191.13 185.82 194.40 182.50 195.71 178.75 C 199.55 167.82 199.02 155.45 194.43 144.83 C 189.66 135.00 181.24 127.01 171.22 122.67 C 156.70 116.29 139.12 117.42 125.56 125.66 C 109.77 134.94 100.78 154.75 105.15 172.70 C 105.96 177.47 108.80 181.49 110.33 186.00 C 111.92 190.39 107.12 194.61 102.93 194.11 C 99.34 193.45 97.74 189.73 96.09 186.90 C 88.06 171.07 88.62 151.32 96.77 135.66 C 106.90 117.87 126.15 105.22 146.71 104.00 Z" />
<path fill="#fdfdfd" opacity="1.00" d=" M 148.49 129.80 C 165.90 128.13 183.47 141.51 186.17 158.86 C 187.45 167.34 186.06 176.78 180.48 183.53 C 177.27 187.48 170.58 185.39 169.15 180.84 C 167.46 176.99 170.98 173.85 172.21 170.48 C 173.86 164.33 172.56 157.35 168.43 152.43 C 163.56 146.61 155.45 143.60 147.98 145.00 C 141.74 145.71 136.23 149.59 132.58 154.57 C 128.20 160.81 128.41 169.39 132.05 175.92 C 134.64 180.87 128.92 187.03 123.78 185.28 C 119.78 183.45 118.32 178.92 116.88 175.12 C 113.34 164.52 115.61 152.37 122.69 143.74 C 128.95 135.90 138.47 130.67 148.49 129.80 Z" />
<path fill="#fdfdfd" opacity="1.00" d=" M 147.88 155.61 C 153.30 153.84 159.62 157.20 160.70 162.87 C 162.52 169.45 155.33 175.99 148.99 174.24 C 145.05 172.54 141.64 168.36 142.35 163.85 C 142.35 160.22 144.93 157.37 147.88 155.61 Z" />
<path fill="#fdfdfd" opacity="1.00" d=" M 148.59 185.67 C 154.74 183.35 161.63 189.91 160.27 196.16 C 159.23 200.61 154.52 204.12 149.94 203.35 C 145.71 202.02 142.52 197.74 142.78 193.27 C 143.08 189.87 145.65 187.14 148.59 185.67 Z" />
<path fill="#fdfdfd" opacity="1.00" d=" M 148.19 213.25 C 154.31 210.53 161.43 216.67 160.32 223.06 C 159.58 229.23 151.32 233.18 146.55 228.58 C 141.13 224.89 142.33 215.84 148.19 213.25 Z" />
</g>
<g id="#131211ff">
<path fill="#131211" opacity="1.00" d=" M 141.95 6.84 C 172.01 4.66 202.72 12.36 228.14 28.56 C 254.63 44.72 275.02 70.14 286.46 98.87 C 295.41 120.66 297.52 144.75 294.97 168.02 C 290.78 199.70 276.13 229.96 253.69 252.73 C 233.04 274.07 205.77 288.93 176.53 294.32 C 147.51 299.65 116.82 295.75 90.16 283.06 C 63.02 270.19 40.34 248.48 25.49 222.45 C 10.84 196.34 4.60 165.68 7.62 135.91 C 10.89 103.09 26.38 71.89 49.63 48.62 C 74.09 24.22 107.43 8.96 141.95 6.84 M 59.43 144.15 C 55.65 159.58 57.45 176.06 63.29 190.74 C 64.37 193.16 65.60 195.72 67.86 197.24 C 71.94 199.33 78.02 195.71 76.75 190.88 C 74.95 185.00 72.51 179.23 72.09 173.02 C 68.61 153.16 75.13 132.28 87.90 116.89 C 99.41 102.44 116.33 92.48 134.50 89.23 C 153.02 85.26 172.65 88.21 189.68 96.28 C 207.57 104.96 221.67 121.00 228.25 139.73 C 233.19 155.18 233.34 172.67 226.52 187.59 C 225.31 190.22 224.45 193.86 226.89 196.08 C 229.82 199.24 235.30 197.69 237.04 194.00 C 247.49 174.69 247.22 150.88 239.10 130.78 C 230.16 108.84 212.29 90.96 190.78 81.23 C 179.26 75.88 166.65 73.50 154.04 72.90 C 152.67 72.89 151.31 72.88 149.94 72.89 C 146.95 73.31 143.91 73.30 140.90 73.57 C 102.65 76.89 67.87 106.53 59.43 144.15 M 146.71 104.00 C 126.15 105.22 106.90 117.87 96.77 135.66 C 88.62 151.32 88.06 171.07 96.09 186.90 C 97.74 189.73 99.34 193.45 102.93 194.11 C 107.12 194.61 111.92 190.39 110.33 186.00 C 108.80 181.49 105.96 177.47 105.15 172.70 C 100.78 154.75 109.77 134.94 125.56 125.66 C 139.12 117.42 156.70 116.29 171.22 122.67 C 181.24 127.01 189.66 135.00 194.43 144.83 C 199.02 155.45 199.55 167.82 195.71 178.75 C 194.40 182.50 191.13 185.82 191.83 190.04 C 192.87 194.41 198.86 196.40 202.09 193.10 C 205.98 189.01 207.87 183.44 209.57 178.17 C 216.52 155.88 207.05 130.24 188.50 116.49 C 176.68 107.54 161.46 103.15 146.71 104.00 M 148.49 129.80 C 138.47 130.67 128.95 135.90 122.69 143.74 C 115.61 152.37 113.34 164.52 116.88 175.12 C 118.32 178.92 119.78 183.45 123.78 185.28 C 128.92 187.03 134.64 180.87 132.05 175.92 C 128.41 169.39 128.20 160.81 132.58 154.57 C 136.23 149.59 141.74 145.71 147.98 145.00 C 155.45 143.60 163.56 146.61 168.43 152.43 C 172.56 157.35 173.86 164.33 172.21 170.48 C 170.98 173.85 167.46 176.99 169.15 180.84 C 170.58 185.39 177.27 187.48 180.48 183.53 C 186.06 176.78 187.45 167.34 186.17 158.86 C 183.47 141.51 165.90 128.13 148.49 129.80 M 147.88 155.61 C 144.93 157.37 142.35 160.22 142.35 163.85 C 141.64 168.36 145.05 172.54 148.99 174.24 C 155.33 175.99 162.52 169.45 160.70 162.87 C 159.62 157.20 153.30 153.84 147.88 155.61 M 148.59 185.67 C 145.65 187.14 143.08 189.87 142.78 193.27 C 142.52 197.74 145.71 202.02 149.94 203.35 C 154.52 204.12 159.23 200.61 160.27 196.16 C 161.63 189.91 154.74 183.35 148.59 185.67 M 148.19 213.25 C 142.33 215.84 141.13 224.89 146.55 228.58 C 151.32 233.18 159.58 229.23 160.32 223.06 C 161.43 216.67 154.31 210.53 148.19 213.25 Z" />
</g>
</svg>
